<svg xmlns="http://www.w3.org/2000/svg" width="30" height="40" viewBox="0 0 30 40">
    <g fill="none" fill-rule="evenodd">
        <g fill="#FFF" fill-rule="nonzero">
            <g>
                <path d="M28.355 35H1.642c-.604.006-1.161-.33-1.444-.872-.29-.548-.26-1.212.077-1.73 1.145-1.752 2.107-3.62 2.87-5.573 1.027-2.554 1.57-5.282 1.6-8.04v-3.097C4.66 10.055 8.959 5.35 14.502 5.012c2.803-.137 5.538.897 7.57 2.86 2.031 1.964 3.182 4.686 3.183 7.532v3.38c0 5.553 2.428 10.47 4.47 13.613.337.518.367 1.183.076 1.73-.283.543-.84.88-1.446.873zM15.005 6.12c-.15 0-.3.004-.451.011-4.955.31-8.79 4.522-8.707 9.557v3.099c-.03 2.898-.598 5.765-1.675 8.45-.792 2.025-1.788 3.961-2.974 5.777-.117.174-.128.399-.03.583.093.178.275.288.473.285h26.714c.198.003.38-.107.473-.284.099-.185.088-.41-.03-.583-2.12-3.274-4.648-8.399-4.648-14.228v-3.383c-.002-5.124-4.094-9.279-9.145-9.284z" transform="translate(-987 -40) translate(987 40)"/>
                <path d="M15.5 40c-3.036-.003-5.497-2.424-5.5-5.412 0-.325.267-.588.597-.588.33 0 .598.263.598.588 0 2.34 1.927 4.236 4.305 4.236 2.378 0 4.305-1.896 4.305-4.236 0-.325.268-.588.598-.588.33 0 .597.263.597.588-.003 2.988-2.464 5.409-5.5 5.412zM12.615 6c-.34 0-.615-.247-.615-.552V3.142C12 1.407 13.567 0 15.5 0S19 1.407 19 3.142v2.292c0 .305-.275.553-.615.553-.34 0-.615-.248-.615-.553V3.142c0-1.125-1.016-2.037-2.27-2.037s-2.27.912-2.27 2.037v2.306c0 .305-.275.552-.615.552z" transform="translate(-987 -40) translate(987 40)"/>
            </g>
        </g>
    </g>
</svg>
