<svg xmlns="http://www.w3.org/2000/svg" width="33" height="33" viewBox="0 0 33 33">
    <g fill="none" fill-rule="evenodd">
        <g fill="#F7F5F9" fill-rule="nonzero">
            <g>
                <path d="M32.777 31.61L17.584 16.5 32.698 1.306c.298-.3.297-.784-.003-1.082-.3-.298-.784-.297-1.082.003L16.502 15.419 1.306.307C1.006.008.52.01.223.309c-.298.3-.297.785.003 1.083L15.419 16.5.307 31.695c-.299.3-.297.784.002 1.082.3.298.785.297 1.083-.003l15.11-15.191 15.192 15.112c.3.298.785.297 1.083-.003.298-.3.297-.784-.003-1.082h.003z" transform="translate(-1141 -259) translate(1141 259)"/>
            </g>
        </g>
    </g>
</svg>
