<svg xmlns="http://www.w3.org/2000/svg" width="40" height="25" viewBox="0 0 40 25">
    <g fill="none" fill-rule="evenodd">
        <g fill="#000" fill-rule="nonzero">
            <g>
                <path d="M39.87 1.03c-.085-.206-.21-.39-.364-.543-.01-.01-.02-.012-.029-.02-.151-.142-.324-.26-.519-.34-.16-.065-.328-.085-.496-.1C38.412.023 38.37 0 38.32 0H24.874c-.93 0-1.68.745-1.68 1.668 0 .922.75 1.668 1.68 1.668h9.405L20.975 16.613l-5.062-6.431c-.292-.372-.728-.602-1.198-.637-.49-.035-.94.13-1.283.452L.525 22.123c-.674.634-.702 1.69-.066 2.358.333.346.777.519 1.222.519.415 0 .83-.152 1.155-.455L14.4 13.679l5.098 6.476c.297.379.743.61 1.225.639.482.026.951-.15 1.292-.489L36.64 5.71v9.3c0 .922.75 1.668 1.68 1.668.93 0 1.681-.746 1.681-1.668V1.666c-.002-.218-.045-.433-.13-.637z" transform="translate(-74 -184) translate(74 184)"/>
            </g>
        </g>
    </g>
</svg>
