<svg xmlns="http://www.w3.org/2000/svg" width="72" height="72" viewBox="0 0 72 72">
    <g fill="none" fill-rule="evenodd">
        <g>
            <g transform="translate(-1179 -585) translate(1179 585)">
                <circle cx="36" cy="36" r="36" fill="#DBE1E9"/>
                <path fill="#1C437E" fill-rule="nonzero" d="M56.339 35.839H37.16V16.66c0-.365-.296-.661-.661-.661-.365 0-.661.296-.661.661V35.84H16.66c-.365 0-.661.296-.661.661 0 .365.296.661.661.661H35.84V56.34c0 .365.296.661.661.661.365 0 .661-.296.661-.661V37.16H56.34c.365 0 .661-.296.661-.661 0-.365-.296-.661-.661-.661z"/>
            </g>
        </g>
    </g>
</svg>
