<svg xmlns="http://www.w3.org/2000/svg" width="27" height="40" viewBox="0 0 27 40">
    <g fill="none" fill-rule="evenodd">
        <g fill="#FFF" fill-rule="nonzero">
            <g>
                <path d="M26.438 40c-.115 0-.227-.036-.322-.102L13.5 30.982.884 39.896c-.172.121-.396.136-.581.038C.117 39.836 0 39.64 0 39.429V2.857C.002 1.28 1.26.002 2.813 0h21.375C25.74.002 26.997 1.28 27 2.857V39.43c0 .315-.252.571-.563.571zM13.5 29.714c.115 0 .227.036.321.103l12.054 8.518V2.857c0-.947-.756-1.714-1.688-1.714H2.813c-.931 0-1.687.767-1.687 1.714v35.478l12.054-8.518c.094-.067.206-.103.321-.103z" transform="translate(-1056 -41) translate(1056 41)"/>
            </g>
        </g>
    </g>
</svg>
